<?xml version="1.0" encoding="UTF-8"?>
<svg version="1.1" xmlns="http://www.w3.org/2000/svg" width="500" height="500">
<path d="M0 0 C0.66 0 1.32 0 2 0 C2.33 2.64 2.66 5.28 3 8 C5.27521866 5.83312509 7.15794162 3.54379491 9 1 C10.65 1.33 12.3 1.66 14 2 C14.33 2.99 14.66 3.98 15 5 C13.68 5 12.36 5 11 5 C10.34 6.65 9.68 8.3 9 10 C10.98 10.495 10.98 10.495 13 11 C13 11.33 13 11.66 13 12 C11.35 12 9.7 12 8 12 C7.67 13.98 7.34 15.96 7 18 C8.98 17.34 10.96 16.68 13 16 C13 16.99 13 17.98 13 19 C13.95261719 18.96519531 14.90523437 18.93039063 15.88671875 18.89453125 C17.14097656 18.86746094 18.39523437 18.84039062 19.6875 18.8125 C20.92886719 18.77769531 22.17023438 18.74289063 23.44921875 18.70703125 C27.21982743 19.01813758 29.01091048 19.74719356 32 22 C34.32826375 25.21522137 34.39711181 28.10830425 34 32 C32.70685228 34.84492497 31.68842011 36.51810592 29.125 38.3125 C26.65743796 39.11082889 24.579019 39.04681388 22 39 C22.40992188 39.65226562 22.81984375 40.30453125 23.2421875 40.9765625 C23.78101563 41.85054687 24.31984375 42.72453125 24.875 43.625 C25.40867187 44.48351562 25.94234375 45.34203125 26.4921875 46.2265625 C29.2398409 51.28053637 30.249773 55.73115918 30.31884766 61.46435547 C30.34865219 63.35563675 30.34865219 63.35563675 30.37905884 65.28512573 C30.39093243 66.64581121 30.40259545 68.00649854 30.4140625 69.3671875 C30.43279034 70.77109902 30.45236495 72.17499947 30.4727478 73.57888794 C30.5239046 77.25799005 30.5636178 80.93712858 30.60089111 84.61639404 C30.64103447 88.37716562 30.69207947 92.13778783 30.7421875 95.8984375 C30.83875172 103.26552223 30.92321824 110.63267971 31 118 C33.31 118.33 35.62 118.66 38 119 C38.01213028 117.72024796 38.01213028 117.72024796 38.02450562 116.41464233 C38.10331457 108.26863716 38.19084281 100.1227783 38.28752708 91.97696495 C38.33691118 87.79180405 38.38323181 83.60666167 38.421875 79.42138672 C38.72192838 47.37605394 38.72192838 47.37605394 39.9140625 34.0390625 C39.9901474 33.18355804 40.0662323 32.32805359 40.1446228 31.44662476 C40.59671458 27.07956371 41.22411286 23.06060893 43 19 C48.50243899 15.33170734 54.60543766 15.87210875 61 16 C64.53029508 23.06059016 63.2723289 33.91947703 63.5625 41.6875 C63.60568359 42.78255859 63.64886719 43.87761719 63.69335938 45.00585938 C63.79808269 47.67048597 63.90025779 50.33518311 64 53 C64.56847656 52.14277344 65.13695312 51.28554687 65.72265625 50.40234375 C73.4664289 38.86177693 80.77782391 29.69791446 95.0546875 26.265625 C103.41247759 25.18019772 110.18876782 26.97040158 117.2890625 31.44140625 C123.77642381 36.48308218 127.17702283 43.39449315 128.609375 51.41015625 C130.65782538 70.23541524 127.05592765 86.37682697 115.625 101.6875 C114.43528622 103.14044763 113.22708497 104.5784733 112 106 C111.42894531 106.66644531 110.85789062 107.33289063 110.26953125 108.01953125 C99.53997132 119.61843719 85.09294819 126.13901325 70 130 C70.61875 130.96486328 70.61875 130.96486328 71.25 131.94921875 C82.54054954 149.61590452 82.54054954 149.61590452 87.4140625 158.25390625 C94.93426735 172.93272345 94.93426735 172.93272345 107.625 182.125 C114.53710298 179.82096567 117.56991824 174.17584368 120.72753906 167.88354492 C124.71018308 159.52497621 127.4041536 150.86596068 130 142 C132.76391555 133.23608445 132.76391555 133.23608445 134 132 C139.52941176 131.76470588 139.52941176 131.76470588 142 133 C141.5259599 139.81286478 140.4351188 146.09657849 138.4375 152.625 C138.17501465 153.48383789 137.9125293 154.34267578 137.64208984 155.22753906 C133.65058183 167.75109815 128.55150796 181.45087685 116.66015625 188.359375 C108.81354241 191.97898202 100.95518563 192.31799063 92.8125 189.4375 C79.18435436 183.20380562 72.32614091 169.344532 65 157 C64.98541748 157.98919434 64.97083496 158.97838867 64.95581055 159.99755859 C64.8979103 163.66182919 64.82067848 167.32547985 64.73754883 170.98925781 C64.7042602 172.57606965 64.67624053 174.16300103 64.65356445 175.75 C64.62008922 178.02916484 64.5677814 180.30723041 64.51171875 182.5859375 C64.50532883 183.29744965 64.4989389 184.00896179 64.49235535 184.74203491 C64.43237305 186.74365234 64.43237305 186.74365234 64 190 C58.66001537 193.55998975 52.24819815 193.31770499 46 193 C43.24989754 190.24989754 43.35546323 187.49085186 42.9765625 183.78515625 C42.89483795 183.0390358 42.8131134 182.29291534 42.72891235 181.52418518 C41.67682969 171.51752135 41.03899047 161.47572141 40.375 151.4375 C40.23996731 149.44333334 40.10455283 147.44919249 39.96875 145.45507812 C39.64144678 140.63700395 39.31925755 135.81861371 39 131 C36.36 130.01 33.72 129.02 31 128 C30.67 138.89 30.34 149.78 30 161 C7.89 161 -14.22 161 -37 161 C-37 152.09 -37 143.18 -37 134 C-42.445 134.99 -42.445 134.99 -48 136 C-48.21914062 137.07636719 -48.43828125 138.15273438 -48.6640625 139.26171875 C-52.31130693 156.37404636 -59.19207774 175.65215545 -74.53515625 185.65234375 C-87.27108515 192.97863759 -100.732554 195.28339075 -115.23828125 192.34375 C-122.09676402 189.92923103 -126.11409732 185.89556773 -129.25 179.41796875 C-133.17048653 169.68481642 -132.87848989 161.71279948 -129 152 C-124.1587148 143.44706282 -116.28813569 136.36868205 -107 133 C-97.21607416 130.51703826 -88.08625109 129.82628216 -78 130 C-77.91959473 128.70304199 -77.83918945 127.40608398 -77.75634766 126.06982422 C-77.03740139 114.4824551 -76.31389712 102.89538167 -75.58442688 91.30867004 C-75.28480658 86.54725474 -74.98587495 81.78581345 -74.69384766 77.02392578 C-73.15987046 52.01655786 -73.15987046 52.01655786 -72.125 42.8125 C-71.94324219 41.18248047 -71.94324219 41.18248047 -71.7578125 39.51953125 C-71 37 -71 37 -69.5078125 35.1484375 C-65.64164064 33.37794758 -61.9437894 33.68472048 -57.75 33.8125 C-56.48929688 33.83280273 -56.48929688 33.83280273 -55.203125 33.85351562 C-53.13514062 33.88876536 -51.06748729 33.9425698 -49 34 C-46.78181041 38.6045914 -46.34368638 43.07687359 -45.88671875 48.09765625 C-45.80242111 49.00999527 -45.71812347 49.92233429 -45.63127136 50.86231995 C-44.71559738 61.85931674 -44.73544621 72.8587662 -44.79418945 83.88647461 C-44.8126036 87.4575916 -44.81469711 91.02844947 -44.81445312 94.59960938 C-44.83219 105.76948209 -44.89121178 116.87511569 -46 128 C-43.03 128 -40.06 128 -37 128 C-37.00888245 127.10765656 -37.01776489 126.21531311 -37.0269165 125.29592896 C-37.1073429 116.85203046 -37.16810628 108.40826217 -37.20724869 99.96406746 C-37.22804935 95.62366407 -37.2562278 91.28357939 -37.30175781 86.94335938 C-37.34548621 82.74822773 -37.36919356 78.55340104 -37.37950897 74.35805893 C-37.38685225 72.76419149 -37.40119107 71.17033917 -37.42292023 69.57660294 C-37.57721869 57.7814444 -36.14115598 48.69156882 -29 39 C-29.886875 39.0825 -30.77375 39.165 -31.6875 39.25 C-35 39 -35 39 -37.8125 37.5625 C-40.89375981 33.95302422 -41.30074666 30.67828141 -41 26 C-39.43818681 22.329739 -38.34089404 21.2272627 -35 19 C-32.82348633 18.68115234 -32.82348633 18.68115234 -30.33203125 18.5859375 C-29.43935547 18.54726562 -28.54667969 18.50859375 -27.62695312 18.46875 C-26.69818359 18.4378125 -25.76941406 18.406875 -24.8125 18.375 C-23.87212891 18.33632812 -22.93175781 18.29765625 -21.96289062 18.2578125 C-19.64224934 18.16357326 -17.32115159 18.08069877 -15 18 C-16.32 14.04 -17.64 10.08 -19 6 C-20.65 6.33 -22.3 6.66 -24 7 C-23 4 -23 4 -21.234375 2.8515625 C-18.84668099 1.94156723 -16.79090905 1.59919786 -14.25 1.375 C-13.45078125 1.30023438 -12.6515625 1.22546875 -11.828125 1.1484375 C-11.22484375 1.09945312 -10.6215625 1.05046875 -10 1 C-10.75023437 1.60328125 -10.75023437 1.60328125 -11.515625 2.21875 C-13.21078496 3.89048603 -13.21078496 3.89048603 -13.109375 6.15625 C-12.99078125 6.9296875 -12.8721875 7.703125 -12.75 8.5 C-12.64171875 9.2734375 -12.5334375 10.046875 -12.421875 10.84375 C-12.01460006 13.16984214 -12.01460006 13.16984214 -11 16 C-10.67 13.03 -10.34 10.06 -10 7 C-9.34 7 -8.68 7 -8 7 C-8 5.02 -8 3.04 -8 1 C-7.01 1 -6.02 1 -5 1 C-4.505 3.97 -4.505 3.97 -4 7 C-3.34 7 -2.68 7 -2 7 C-1.34 4.69 -0.68 2.38 0 0 Z M-4 8 C-5.20561184 8.98267859 -5.20561184 8.98267859 -5.09765625 10.84765625 C-5.08605469 11.57855469 -5.07445312 12.30945313 -5.0625 13.0625 C-5.041875 14.361875 -5.02125 15.66125 -5 17 C-6.32 17 -7.64 17 -9 17 C-9 17.66 -9 18.32 -9 19 C-6.36 18.67 -3.72 18.34 -1 18 C-1.33 14.7 -1.66 11.4 -2 8 C-2.66 8 -3.32 8 -4 8 Z M1 8 C1 10.64 1 13.28 1 16 C1.66 16 2.32 16 3 16 C4.01540112 11.89776415 4.01540112 11.89776415 3 8 C2.34 8 1.68 8 1 8 Z M87 42 C68.95345357 60.41759692 62.71400021 85.59639563 62.8125 110.625 C62.85023247 114.08417197 62.90982242 117.54180546 63 121 C70.35798439 122.67717628 76.46826957 120.01948612 82.91015625 116.3359375 C97.28139733 106.51255752 105.24367947 92.40222433 109.30859375 75.734375 C111.41807277 64.34080469 110.54284539 50.93543188 104 41 C102.09189952 39.07651161 100.2147832 37.60218359 98 36 C93.77727746 36 90.17081425 39.46538444 87 42 Z M-106.87890625 143.30859375 C-113.31885657 148.44395009 -116.70248886 153.76143411 -118 162 C-118.15867056 168.57953904 -116.6743021 173.91284481 -112.3046875 178.95703125 C-108.62893797 182.62060157 -108.62893797 182.62060157 -103.875 184.39453125 C-100.2341282 184.1393944 -98.29453612 183.22440847 -95.375 181 C-94.59125 180.01 -93.8075 179.02 -93 178 C-92.51789063 177.39285156 -92.03578125 176.78570312 -91.5390625 176.16015625 C-83.97753628 165.85421823 -79 150.7975936 -79 138 C-88.79771994 135.96623086 -98.59259575 137.66192896 -106.87890625 143.30859375 Z " fill="#C71958" transform="translate(241,133)"/>
<path d="M0 0 C0.66 0 1.32 0 2 0 C2.495 3.96 2.495 3.96 3 8 C5.27521866 5.83312509 7.15794162 3.54379491 9 1 C11.475 1.495 11.475 1.495 14 2 C14.495 3.485 14.495 3.485 15 5 C13.68 5 12.36 5 11 5 C10.34 6.65 9.68 8.3 9 10 C10.32 10.33 11.64 10.66 13 11 C13 11.33 13 11.66 13 12 C11.35 12 9.7 12 8 12 C7.67 13.98 7.34 15.96 7 18 C8.98 17.34 10.96 16.68 13 16 C13 16.99 13 17.98 13 19 C13.95261719 18.96519531 14.90523437 18.93039063 15.88671875 18.89453125 C17.14097656 18.86746094 18.39523437 18.84039062 19.6875 18.8125 C20.92886719 18.77769531 22.17023438 18.74289063 23.44921875 18.70703125 C27.21982743 19.01813758 29.01091048 19.74719356 32 22 C34.32826375 25.21522137 34.39711181 28.10830425 34 32 C32.70685228 34.84492497 31.68842011 36.51810592 29.125 38.3125 C26.65743796 39.11082889 24.579019 39.04681388 22 39 C22.40992188 39.65226562 22.81984375 40.30453125 23.2421875 40.9765625 C23.78101563 41.85054687 24.31984375 42.72453125 24.875 43.625 C25.40867187 44.48351562 25.94234375 45.34203125 26.4921875 46.2265625 C29.2398409 51.28053637 30.249773 55.73115918 30.31884766 61.46435547 C30.33871735 62.72520966 30.35858704 63.98606384 30.37905884 65.28512573 C30.39093243 66.64581121 30.40259545 68.00649854 30.4140625 69.3671875 C30.43279034 70.77109902 30.45236495 72.17499947 30.4727478 73.57888794 C30.5239046 77.25799005 30.5636178 80.93712858 30.60089111 84.61639404 C30.64103447 88.37716562 30.69207947 92.13778783 30.7421875 95.8984375 C30.83875172 103.26552223 30.92321824 110.63267971 31 118 C33.31 118.33 35.62 118.66 38 119 C38.00808685 118.14683197 38.01617371 117.29366394 38.02450562 116.41464233 C38.10331457 108.26863716 38.19084281 100.1227783 38.28752708 91.97696495 C38.33691118 87.79180405 38.38323181 83.60666167 38.421875 79.42138672 C38.72192838 47.37605394 38.72192838 47.37605394 39.9140625 34.0390625 C39.9901474 33.18355804 40.0662323 32.32805359 40.1446228 31.44662476 C40.59671458 27.07956371 41.22411286 23.06060893 43 19 C48.50243899 15.33170734 54.60543766 15.87210875 61 16 C64.53029508 23.06059016 63.2723289 33.91947703 63.5625 41.6875 C63.60568359 42.78255859 63.64886719 43.87761719 63.69335938 45.00585938 C63.79808269 47.67048597 63.90025779 50.33518311 64 53 C64.56847656 52.14277344 65.13695312 51.28554687 65.72265625 50.40234375 C73.4664289 38.86177693 80.77782391 29.69791446 95.0546875 26.265625 C103.41247759 25.18019772 110.18876782 26.97040158 117.2890625 31.44140625 C123.77642381 36.48308218 127.17702283 43.39449315 128.609375 51.41015625 C130.65782538 70.23541524 127.05592765 86.37682697 115.625 101.6875 C114.43528622 103.14044763 113.22708497 104.5784733 112 106 C111.42894531 106.66644531 110.85789062 107.33289063 110.26953125 108.01953125 C99.53997132 119.61843719 85.09294819 126.13901325 70 130 C70.4125 130.64324219 70.825 131.28648437 71.25 131.94921875 C82.54054954 149.61590452 82.54054954 149.61590452 87.4140625 158.25390625 C94.93426735 172.93272345 94.93426735 172.93272345 107.625 182.125 C114.53710298 179.82096567 117.56991824 174.17584368 120.72753906 167.88354492 C124.71018308 159.52497621 127.4041536 150.86596068 130 142 C132.76391555 133.23608445 132.76391555 133.23608445 134 132 C139.52941176 131.76470588 139.52941176 131.76470588 142 133 C141.5259599 139.81286478 140.4351188 146.09657849 138.4375 152.625 C138.17501465 153.48383789 137.9125293 154.34267578 137.64208984 155.22753906 C133.65058183 167.75109815 128.55150796 181.45087685 116.66015625 188.359375 C108.81354241 191.97898202 100.95518563 192.31799063 92.8125 189.4375 C79.18435436 183.20380562 72.32614091 169.344532 65 157 C64.98541748 157.98919434 64.97083496 158.97838867 64.95581055 159.99755859 C64.8979103 163.66182919 64.82067848 167.32547985 64.73754883 170.98925781 C64.7042602 172.57606965 64.67624053 174.16300103 64.65356445 175.75 C64.62008922 178.02916484 64.5677814 180.30723041 64.51171875 182.5859375 C64.50532883 183.29744965 64.4989389 184.00896179 64.49235535 184.74203491 C64.43237305 186.74365234 64.43237305 186.74365234 64 190 C58.66001537 193.55998975 52.24819815 193.31770499 46 193 C43.24989754 190.24989754 43.35546323 187.49085186 42.9765625 183.78515625 C42.89483795 183.0390358 42.8131134 182.29291534 42.72891235 181.52418518 C41.67682969 171.51752135 41.03899047 161.47572141 40.375 151.4375 C40.23996731 149.44333334 40.10455283 147.44919249 39.96875 145.45507812 C39.64144678 140.63700395 39.31925755 135.81861371 39 131 C36.36 130.01 33.72 129.02 31 128 C30.67 138.89 30.34 149.78 30 161 C7.89 161 -14.22 161 -37 161 C-37 152.42 -37 143.84 -37 135 C-36.67 135 -36.34 135 -36 135 C-36 143.25 -36 151.5 -36 160 C-14.88 160 6.24 160 28 160 C28 149.44 28 138.88 28 128 C28.66 126.02 29.32 124.04 30 122 C29.34 121.01 28.68 120.02 28 119 C27.73498535 116.14707947 27.73498535 116.14707947 27.71289062 112.63256836 C27.69947632 111.31788071 27.68606201 110.00319305 27.67224121 108.64866638 C27.66967819 107.94653959 27.66711517 107.2444128 27.66447449 106.52100945 C27.65618694 104.32311954 27.63568569 102.12564544 27.61193848 99.9278717 C27.55551973 94.4711888 27.52027966 89.01440515 27.48431396 83.55755615 C27.45310774 78.94389936 27.41395139 74.33044508 27.36405945 69.71695137 C27.34394842 67.54873612 27.33566398 65.38067629 27.32775879 63.21238708 C27.31434448 61.90085159 27.30093018 60.5893161 27.28710938 59.23803711 C27.27617249 57.4995475 27.27617249 57.4995475 27.26501465 55.72593689 C27.27715464 52.85357696 27.27715464 52.85357696 25 51 C25.33 50.01 25.66 49.02 26 48 C24.515 47.505 24.515 47.505 23 47 C21.875 44.5 21.875 44.5 21 42 C19.42120484 40.42120484 17.81471137 40.85173559 15.62304688 40.82641602 C14.69117554 40.81292618 13.7593042 40.79943634 12.79919434 40.78553772 C11.78264771 40.77509933 10.76610107 40.76466095 9.71875 40.75390625 C7.57551718 40.72093965 5.43228811 40.68772852 3.2890625 40.65429688 C-0.09665066 40.60706916 -3.4823518 40.56270596 -6.86816406 40.52319336 C-10.13103136 40.48320959 -13.39356819 40.43169818 -16.65625 40.37890625 C-17.65660278 40.3704921 -18.65695557 40.36207794 -19.68762207 40.35340881 C-34.51546271 40.09558013 -34.51546271 40.09558013 -38.71008301 36.55763245 C-41.18545915 33.56850507 -41.11880008 29.75540245 -41 26 C-39.43818681 22.329739 -38.34089404 21.2272627 -35 19 C-32.82348633 18.68115234 -32.82348633 18.68115234 -30.33203125 18.5859375 C-29.43935547 18.54726562 -28.54667969 18.50859375 -27.62695312 18.46875 C-26.69818359 18.4378125 -25.76941406 18.406875 -24.8125 18.375 C-23.87212891 18.33632812 -22.93175781 18.29765625 -21.96289062 18.2578125 C-19.64224934 18.16357326 -17.32115159 18.08069877 -15 18 C-16.32 14.04 -17.64 10.08 -19 6 C-20.65 6.33 -22.3 6.66 -24 7 C-23 4 -23 4 -21.234375 2.8515625 C-18.84668099 1.94156723 -16.79090905 1.59919786 -14.25 1.375 C-13.45078125 1.30023438 -12.6515625 1.22546875 -11.828125 1.1484375 C-10.92320312 1.07496094 -10.92320312 1.07496094 -10 1 C-10.50015625 1.4021875 -11.0003125 1.804375 -11.515625 2.21875 C-13.21078496 3.89048603 -13.21078496 3.89048603 -13.109375 6.15625 C-12.99078125 6.9296875 -12.8721875 7.703125 -12.75 8.5 C-12.64171875 9.2734375 -12.5334375 10.046875 -12.421875 10.84375 C-12.01460006 13.16984214 -12.01460006 13.16984214 -11 16 C-10.67 13.03 -10.34 10.06 -10 7 C-9.34 7 -8.68 7 -8 7 C-8 5.02 -8 3.04 -8 1 C-7.01 1 -6.02 1 -5 1 C-4.505 3.97 -4.505 3.97 -4 7 C-3.34 7 -2.68 7 -2 7 C-1.34 4.69 -0.68 2.38 0 0 Z M-4 8 C-5.20561184 8.98267859 -5.20561184 8.98267859 -5.09765625 10.84765625 C-5.08605469 11.57855469 -5.07445312 12.30945313 -5.0625 13.0625 C-5.041875 14.361875 -5.02125 15.66125 -5 17 C-6.32 17 -7.64 17 -9 17 C-9 17.66 -9 18.32 -9 19 C-6.36 18.67 -3.72 18.34 -1 18 C-1.33 14.7 -1.66 11.4 -2 8 C-2.66 8 -3.32 8 -4 8 Z M1 8 C1 10.64 1 13.28 1 16 C1.66 16 2.32 16 3 16 C4.01540112 11.89776415 4.01540112 11.89776415 3 8 C2.34 8 1.68 8 1 8 Z M87 42 C68.95345357 60.41759692 62.71400021 85.59639563 62.8125 110.625 C62.85023247 114.08417197 62.90982242 117.54180546 63 121 C70.35798439 122.67717628 76.46826957 120.01948612 82.91015625 116.3359375 C97.28139733 106.51255752 105.24367947 92.40222433 109.30859375 75.734375 C111.41807277 64.34080469 110.54284539 50.93543188 104 41 C102.09189952 39.07651161 100.2147832 37.60218359 98 36 C93.77727746 36 90.17081425 39.46538444 87 42 Z " fill="#C51B58" transform="translate(241,133)"/>
<path d="M0 0 C8.49477932 9.17777665 9.56428416 20.2683293 9.45703125 32.31640625 C8.71864148 47.69768959 2.13206582 60.90027279 -7.8203125 72.4296875 C-8.39136719 73.09613281 -8.96242188 73.76257813 -9.55078125 74.44921875 C-15.85284386 81.26189624 -25.10234304 88.07365501 -33.8203125 91.4296875 C-35.3053125 90.9346875 -35.3053125 90.9346875 -36.8203125 90.4296875 C-36.1603125 90.4296875 -35.5003125 90.4296875 -34.8203125 90.4296875 C-34.8203125 89.4396875 -34.8203125 88.4496875 -34.8203125 87.4296875 C-36.44839844 87.64625 -36.44839844 87.64625 -38.109375 87.8671875 C-39.5546616 88.05488706 -40.99997557 88.24237588 -42.4453125 88.4296875 C-43.15816406 88.52507812 -43.87101562 88.62046875 -44.60546875 88.71875 C-48.70852859 89.24574851 -52.67276992 89.53435734 -56.8203125 89.4296875 C-56.3253125 88.4396875 -56.3253125 88.4396875 -55.8203125 87.4296875 C-53.92461666 87.22657723 -52.02886404 87.02398132 -50.1328125 86.82421875 C-43.26900184 85.653197 -37.75071344 81.92843898 -32.44921875 77.6015625 C-30.8203125 76.4296875 -30.8203125 76.4296875 -28.8203125 76.4296875 C-28.3253125 74.9446875 -28.3253125 74.9446875 -27.8203125 73.4296875 C-27.1603125 73.4296875 -26.5003125 73.4296875 -25.8203125 73.4296875 C-25.42779297 72.58857422 -25.42779297 72.58857422 -25.02734375 71.73046875 C-23.70113621 69.20251975 -22.13332037 66.96354143 -20.5078125 64.6171875 C-12.47271168 52.15355512 -8.87111039 36.80227359 -11.38671875 22.125 C-12.9335055 15.63011532 -14.5173548 9.91937149 -19.1328125 4.9296875 C-21.74516594 3.11288428 -21.74516594 3.11288428 -24.7578125 3.8671875 C-30.85461654 6.97780181 -34.58651987 11.05655638 -38.3828125 16.6796875 C-38.7655835 17.24453857 -39.14835449 17.80938965 -39.54272461 18.39135742 C-42.57745293 22.92512968 -45.32621629 27.5793597 -47.8203125 32.4296875 C-48.1503125 32.4296875 -48.4803125 32.4296875 -48.8203125 32.4296875 C-48.8203125 30.1196875 -48.8203125 27.8096875 -48.8203125 25.4296875 C-47.8303125 24.9346875 -47.8303125 24.9346875 -46.8203125 24.4296875 C-46.8203125 23.7696875 -46.8203125 23.1096875 -46.8203125 22.4296875 C-50.51572836 21.47943771 -53.12489664 21.47943771 -56.8203125 22.4296875 C-51.42905215 10.29935171 -42.48118485 -0.86250457 -29.90234375 -5.85546875 C-19.46889663 -9.43768418 -8.36936253 -7.21992218 0 0 Z " fill="#C41B58" transform="translate(360.8203125,166.5703125)"/>
<path d="M0 0 C0.66 0 1.32 0 2 0 C2.495 3.96 2.495 3.96 3 8 C5.27521866 5.83312509 7.15794162 3.54379491 9 1 C11.475 1.495 11.475 1.495 14 2 C14.495 3.485 14.495 3.485 15 5 C13.68 5 12.36 5 11 5 C10.34 6.65 9.68 8.3 9 10 C10.32 10.33 11.64 10.66 13 11 C13 11.33 13 11.66 13 12 C11.35 12 9.7 12 8 12 C7.67 13.98 7.34 15.96 7 18 C8.98 17.34 10.96 16.68 13 16 C13 16.99 13 17.98 13 19 C13.95261719 18.96519531 14.90523437 18.93039063 15.88671875 18.89453125 C17.14097656 18.86746094 18.39523437 18.84039062 19.6875 18.8125 C20.92886719 18.77769531 22.17023438 18.74289063 23.44921875 18.70703125 C27.21982743 19.01813758 29.01091048 19.74719356 32 22 C34.32826375 25.21522137 34.39711181 28.10830425 34 32 C32.27386434 35.79749846 30.84725001 37.47659883 27 39 C24.49153137 39.29193115 24.49153137 39.29193115 21.63989258 39.35058594 C20.56810257 39.37691101 19.49631256 39.40323608 18.39204407 39.43035889 C16.66077522 39.45709686 16.66077522 39.45709686 14.89453125 39.484375 C13.70075363 39.5084845 12.50697601 39.53259399 11.27702332 39.55743408 C8.74946639 39.60573733 6.22181153 39.64912746 3.6940918 39.68798828 C-0.15556323 39.74948978 -4.00432345 39.8326558 -7.85351562 39.91796875 C-10.31247666 39.96225287 -12.77146105 40.00526257 -15.23046875 40.046875 C-16.94655586 40.08575836 -16.94655586 40.08575836 -18.6973114 40.12542725 C-34.25881194 40.32169232 -34.25881194 40.32169232 -38.70451355 36.55633545 C-41.18839415 33.57232012 -41.11881586 29.75590133 -41 26 C-39.43818681 22.329739 -38.34089404 21.2272627 -35 19 C-32.82348633 18.68115234 -32.82348633 18.68115234 -30.33203125 18.5859375 C-29.43935547 18.54726562 -28.54667969 18.50859375 -27.62695312 18.46875 C-26.69818359 18.4378125 -25.76941406 18.406875 -24.8125 18.375 C-23.87212891 18.33632812 -22.93175781 18.29765625 -21.96289062 18.2578125 C-19.64224934 18.16357326 -17.32115159 18.08069877 -15 18 C-16.32 14.04 -17.64 10.08 -19 6 C-20.65 6.33 -22.3 6.66 -24 7 C-23 4 -23 4 -21.234375 2.8515625 C-18.84668099 1.94156723 -16.79090905 1.59919786 -14.25 1.375 C-13.45078125 1.30023438 -12.6515625 1.22546875 -11.828125 1.1484375 C-10.92320312 1.07496094 -10.92320312 1.07496094 -10 1 C-10.50015625 1.4021875 -11.0003125 1.804375 -11.515625 2.21875 C-13.21078496 3.89048603 -13.21078496 3.89048603 -13.109375 6.15625 C-12.99078125 6.9296875 -12.8721875 7.703125 -12.75 8.5 C-12.64171875 9.2734375 -12.5334375 10.046875 -12.421875 10.84375 C-12.01460006 13.16984214 -12.01460006 13.16984214 -11 16 C-10.67 13.03 -10.34 10.06 -10 7 C-9.34 7 -8.68 7 -8 7 C-8 5.02 -8 3.04 -8 1 C-7.01 1 -6.02 1 -5 1 C-4.505 3.97 -4.505 3.97 -4 7 C-3.34 7 -2.68 7 -2 7 C-1.34 4.69 -0.68 2.38 0 0 Z M-4 8 C-5.20561184 8.98267859 -5.20561184 8.98267859 -5.09765625 10.84765625 C-5.08605469 11.57855469 -5.07445312 12.30945313 -5.0625 13.0625 C-5.041875 14.361875 -5.02125 15.66125 -5 17 C-6.32 17 -7.64 17 -9 17 C-9 17.66 -9 18.32 -9 19 C-6.36 18.67 -3.72 18.34 -1 18 C-1.33 14.7 -1.66 11.4 -2 8 C-2.66 8 -3.32 8 -4 8 Z M1 8 C1 10.64 1 13.28 1 16 C1.66 16 2.32 16 3 16 C4.01540112 11.89776415 4.01540112 11.89776415 3 8 C2.34 8 1.68 8 1 8 Z " fill="#BB9266" transform="translate(241,133)"/>
<path d="M0 0 C0.66 0 1.32 0 2 0 C2.33 2.64 2.66 5.28 3 8 C5.27521866 5.83312509 7.15794162 3.54379491 9 1 C11.475 1.495 11.475 1.495 14 2 C14.495 3.485 14.495 3.485 15 5 C13.68 5 12.36 5 11 5 C10.34 6.65 9.68 8.3 9 10 C10.32 10.33 11.64 10.66 13 11 C13 11.33 13 11.66 13 12 C11.35 12 9.7 12 8 12 C7.67 13.98 7.34 15.96 7 18 C4.36 18 1.72 18 -1 18 C-2.1577506 14.52674819 -2.06866652 11.63932552 -2 8 C-2.99 8.495 -2.99 8.495 -4 9 C-4.46523063 10.89533342 -4.46523063 10.89533342 -4.625 13.0625 C-4.74875 14.361875 -4.8725 15.66125 -5 17 C-11.625 19.125 -11.625 19.125 -15 18 C-16.16796875 15.27734375 -16.16796875 15.27734375 -17.1875 11.9375 C-17.70376953 10.28041016 -17.70376953 10.28041016 -18.23046875 8.58984375 C-18.48441406 7.73519531 -18.73835937 6.88054687 -19 6 C-20.65 6.33 -22.3 6.66 -24 7 C-23 4 -23 4 -21.234375 2.8515625 C-18.84668099 1.94156723 -16.79090905 1.59919786 -14.25 1.375 C-13.05117187 1.26285156 -13.05117187 1.26285156 -11.828125 1.1484375 C-11.22484375 1.09945312 -10.6215625 1.05046875 -10 1 C-10.50015625 1.4021875 -11.0003125 1.804375 -11.515625 2.21875 C-13.21078496 3.89048603 -13.21078496 3.89048603 -13.109375 6.15625 C-12.99078125 6.9296875 -12.8721875 7.703125 -12.75 8.5 C-12.64171875 9.2734375 -12.5334375 10.046875 -12.421875 10.84375 C-12.01460006 13.16984214 -12.01460006 13.16984214 -11 16 C-10.67 13.03 -10.34 10.06 -10 7 C-9.34 7 -8.68 7 -8 7 C-8 5.02 -8 3.04 -8 1 C-7.01 1 -6.02 1 -5 1 C-4.67 2.98 -4.34 4.96 -4 7 C-3.34 7 -2.68 7 -2 7 C-1.34 4.69 -0.68 2.38 0 0 Z M1 8 C1 10.64 1 13.28 1 16 C1.66 16 2.32 16 3 16 C4.01540112 11.89776415 4.01540112 11.89776415 3 8 C2.34 8 1.68 8 1 8 Z " fill="#B2305E" transform="translate(241,133)"/>
<path d="M0 0 C6.72525156 -0.25397215 13.44926505 -0.42882941 20.17822266 -0.54931641 C22.46580199 -0.59954658 24.75306119 -0.66774792 27.03955078 -0.75439453 C30.33185657 -0.87601382 33.61991743 -0.93246228 36.9140625 -0.9765625 C38.44252304 -1.05398178 38.44252304 -1.05398178 40.00186157 -1.13296509 C42.97561887 -1.13530346 45.20219665 -1.01818138 48 0 C53.70534691 6.0914539 56.22002215 14.26183881 56.31884766 22.46435547 C56.33871735 23.72520966 56.35858704 24.98606384 56.37905884 26.28512573 C56.39093243 27.64581121 56.40259545 29.00649854 56.4140625 30.3671875 C56.43279034 31.77109902 56.45236495 33.17499947 56.4727478 34.57888794 C56.5239046 38.25799005 56.5636178 41.93712858 56.60089111 45.61639404 C56.64103447 49.37716562 56.69207947 53.13778783 56.7421875 56.8984375 C56.83875172 64.26552223 56.92321824 71.63267971 57 79 C58.65 79.33 60.3 79.66 62 80 C62 80.33 62 80.66 62 81 C59.66705225 81.04241723 57.33297433 81.04092937 55 81 C53.17730535 79.17730535 53.84643528 76.30992893 53.82641602 73.85961914 C53.81292618 72.54478043 53.79943634 71.22994171 53.78553772 69.8752594 C53.78047777 69.16813875 53.77541782 68.4610181 53.77020454 67.73246956 C53.75384152 65.52642955 53.73060649 63.32056326 53.70530701 61.11460876 C53.63439779 54.84122316 53.57435632 48.56776653 53.52319336 42.29418945 C53.49144933 38.46094936 53.45018534 34.627908 53.40299797 30.79482841 C53.38694944 29.33119714 53.37464109 27.86752004 53.36609077 26.40382576 C53.35397403 24.35906998 53.32879562 22.31440408 53.30297852 20.26977539 C53.29267105 19.10474991 53.28236359 17.93972443 53.27174377 16.73939514 C53.27789115 13.85532325 53.27789115 13.85532325 51 12 C51.33 11.01 51.66 10.02 52 9 C51.01 8.67 50.02 8.34 49 8 C47.875 5.5 47.875 5.5 47 3 C45.42926468 1.42926468 43.84637782 1.83630693 41.66381836 1.79467773 C40.7429393 1.77473251 39.82206024 1.75478729 38.87327576 1.73423767 C37.87224319 1.71752518 36.87121063 1.70081268 35.83984375 1.68359375 C34.82024063 1.66281265 33.80063751 1.64203156 32.75013733 1.62062073 C29.47932952 1.55501148 26.20843863 1.49618766 22.9375 1.4375 C20.72590272 1.39432558 18.51431397 1.35071166 16.30273438 1.30664062 C10.86857849 1.1993186 5.43433918 1.09757377 0 1 C0 0.67 0 0.34 0 0 Z " fill="#B12656" transform="translate(215,172)"/>
<path d="M0 0 C0 0.66 0 1.32 0 2 C-8.415 2.495 -8.415 2.495 -17 3 C-17.33 3.99 -17.66 4.98 -18 6 C-12.72 6 -7.44 6 -2 6 C-1.67 6.66 -1.34 7.32 -1 8 C-2.03898437 8.02578125 -3.07796875 8.0515625 -4.1484375 8.078125 C-15.25284758 8.47937679 -23.88482068 10.28355208 -33 17 C-33 16.01 -33 15.02 -33 14 C-32.01 13.34 -31.02 12.68 -30 12 C-30 11.34 -30 10.68 -30 10 C-29.34 10 -28.68 10 -28 10 C-27.71125 9.360625 -27.4225 8.72125 -27.125 8.0625 C-26 6 -26 6 -24 5 C-26.31 5 -28.62 5 -31 5 C-28.27132831 2.27132831 -25.35381335 2.04032704 -21.6875 1.375 C-20.97851562 1.24311279 -20.26953125 1.11122559 -19.5390625 0.9753418 C-13.01087649 -0.15380666 -6.61717571 -0.30593107 0 0 Z " fill="#B72156" transform="translate(163,263)"/>
<path d="M0 0 C0.33 1.32 0.66 2.64 1 4 C1.66 4 2.32 4 3 4 C3 5.65 3 7.3 3 9 C4.32 9 5.64 9 7 9 C7 9.66 7 10.32 7 11 C24.49 11 41.98 11 60 11 C60.495 11.99 60.495 11.99 61 13 C54.32922395 13.19471236 47.65814232 13.37184545 40.98657227 13.53710938 C38.71986473 13.59529224 36.45325448 13.65741015 34.18676758 13.72363281 C30.91766083 13.81845199 27.64845872 13.89883331 24.37890625 13.9765625 C23.37541641 14.00875885 22.37192657 14.0409552 21.33802795 14.0741272 C6.84917589 14.37847111 6.84917589 14.37847111 2.28346252 10.56704712 C0.58306475 8.49094175 0.50467288 6.96448577 0.3125 4.3125 C0.24675781 3.50425781 0.18101562 2.69601563 0.11328125 1.86328125 C0.07589844 1.24839844 0.03851563 0.63351563 0 0 Z " fill="#C47566" transform="translate(200,159)"/>
<path d="M0 0 C-0.99 0.66 -1.98 1.32 -3 2 C-2.5547115 7.27315333 -1.91626837 12.01770224 0 17 C-1.65 16.67 -3.3 16.34 -5 16 C-6.32 12.04 -7.64 8.08 -9 4 C-10.65 4.33 -12.3 4.66 -14 5 C-13 2 -13 2 -11.3125 0.875 C-7.27176447 -0.65392696 -4.14195191 -1.38065064 0 0 Z " fill="#AC305D" transform="translate(231,135)"/>
<path d="M0 0 C1.65 0 3.3 0 5 0 C5.33 1.65 5.66 3.3 6 5 C6.66 5 7.32 5 8 5 C7.67 6.65 7.34 8.3 7 10 C8.98 10 10.96 10 13 10 C12.79375 10.886875 12.5875 11.77375 12.375 12.6875 C11.97449761 16.2252711 12.43316484 17.86632967 14 21 C9.81519828 17.16455117 7.02297741 13.1472139 4.1875 8.25 C3.57745117 7.22326172 3.57745117 7.22326172 2.95507812 6.17578125 C0 1.15959821 0 1.15959821 0 0 Z " fill="#B42056" transform="translate(306,289)"/>
<path d="M0 0 C0.51046875 0.31710937 1.0209375 0.63421875 1.546875 0.9609375 C4.80214659 2.33976273 7.72843132 2.4293573 11.25 2.625 C12.51328125 2.69976562 13.7765625 2.77453125 15.078125 2.8515625 C16.04234375 2.90054687 17.0065625 2.94953125 18 3 C18 2.34 18 1.68 18 1 C21.3 1 24.6 1 28 1 C21.96629201 4.01685399 17.25903753 4.18244357 10.625 4.1875 C9.36816406 4.20586914 9.36816406 4.20586914 8.0859375 4.22460938 C3.31538183 4.23586069 -0.51731565 3.84709958 -5 2 C-4.01 1.67 -3.02 1.34 -2 1 C-1.34 1.33 -0.68 1.66 0 2 C0 1.34 0 0.68 0 0 Z " fill="#B71F54" transform="translate(128,322)"/>
<path d="M0 0 C0.90105469 0.00902344 1.80210937 0.01804688 2.73046875 0.02734375 C3.41753906 0.03894531 4.10460937 0.05054688 4.8125 0.0625 C4.8125 1.0525 4.8125 2.0425 4.8125 3.0625 C-3.5835396 5.59715347 -3.5835396 5.59715347 -8.1875 4.0625 C-8.1875 3.0725 -8.1875 2.0825 -8.1875 1.0625 C-5.17259443 0.05753148 -3.14568308 -0.04085303 0 0 Z " fill="#CA1756" transform="translate(321.1875,253.9375)"/>
<path d="M0 0 C0.66 0.99 1.32 1.98 2 3 C1.21069203 5.48935591 0.1651105 7.669779 -1 10 C-1.23172827 12.54615009 -1.41894529 15.07396225 -1.5625 17.625 C-1.60568359 18.33140625 -1.64886719 19.0378125 -1.69335938 19.765625 C-1.79944751 21.51018537 -1.90022889 23.25506697 -2 25 C-4.90089921 19.84541416 -4.688793 14.9441701 -3.359375 9.26171875 C-2.41749782 6.07134064 -1.48957494 2.97914989 0 0 Z " fill="#AC2656" transform="translate(113,283)"/>
<path d="M0 0 C0.33 0.99 0.66 1.98 1 3 C0.01 3.33 -0.98 3.66 -2 4 C-2.33 4.99 -2.66 5.98 -3 7 C-4.87387477 7.3396019 -6.74916697 7.67138691 -8.625 8 C-9.66914063 8.185625 -10.71328125 8.37125 -11.7890625 8.5625 C-14.90574865 8.98715797 -17.85930812 9.07545206 -21 9 C-20.67 8.34 -20.34 7.68 -20 7 C-18.11128408 6.79763758 -16.22229795 6.59747998 -14.33203125 6.41015625 C-9.09670237 5.48936976 -4.38264624 2.92176416 0 0 Z " fill="#B02355" transform="translate(325,247)"/>
<path d="M0 0 C0 0.66 0 1.32 0 2 C-0.74161377 2.02505615 -1.48322754 2.0501123 -2.24731445 2.07592773 C-5.60255328 2.19186132 -8.95750944 2.31459985 -12.3125 2.4375 C-13.47974609 2.47681641 -14.64699219 2.51613281 -15.84960938 2.55664062 C-16.96787109 2.59853516 -18.08613281 2.64042969 -19.23828125 2.68359375 C-20.7857605 2.73858032 -20.7857605 2.73858032 -22.36450195 2.79467773 C-25.10748258 2.90161242 -25.10748258 2.90161242 -28 4 C-28.33 4.99 -28.66 5.98 -29 7 C-29.66 7 -30.32 7 -31 7 C-29.63016497 3.83884224 -29.0109362 3.0072908 -26 1 C-23.81103516 0.68115234 -23.81103516 0.68115234 -21.2890625 0.5859375 C-20.37382812 0.54726562 -19.45859375 0.50859375 -18.515625 0.46875 C-17.08476562 0.42234375 -17.08476562 0.42234375 -15.625 0.375 C-14.20574219 0.31699219 -14.20574219 0.31699219 -12.7578125 0.2578125 C-8.5021465 0.09045485 -4.2592811 -0.01805183 0 0 Z " fill="#B4876B" transform="translate(232,151)"/>
<path d="M0 0 C2.475 0.99 2.475 0.99 5 2 C5 4.64 5 7.28 5 10 C3.35 10.33 1.7 10.66 0 11 C0 7.37 0 3.74 0 0 Z " fill="#BE4A70" transform="translate(231,140)"/>
<path d="M0 0 C0.66 0 1.32 0 2 0 C2.33 1.98 2.66 3.96 3 6 C3.66 6 4.32 6 5 6 C5.66 7.98 6.32 9.96 7 12 C4.625 11.8125 4.625 11.8125 2 11 C-0.16789459 7.38684234 -0.19258541 4.14058636 0 0 Z " fill="#B33858" transform="translate(224,140)"/>
<path d="M0 0 C0.33 1.32 0.66 2.64 1 4 C1.66 4 2.32 4 3 4 C3 5.65 3 7.3 3 9 C4.32 9 5.64 9 7 9 C7.33 9.66 7.66 10.32 8 11 C11.02934491 11.65772428 11.02934491 11.65772428 14 12 C14 12.33 14 12.66 14 13 C6.97346278 13.4763754 6.97346278 13.4763754 3.0625 11.5625 C0.14421479 7.93675171 0.10687897 4.54721456 0 0 Z " fill="#B0856F" transform="translate(200,159)"/>
<path d="M0 0 C5 5 5 5 6.375 6.75 C8.9752158 8.750166 11.8107651 8.69912878 15 9 C15 9.66 15 10.32 15 11 C11.875 11.9375 11.875 11.9375 8 12 C6.085693 10.38817943 4.73120726 8.68511244 3.26171875 6.6640625 C2.08614161 4.85868626 2.08614161 4.85868626 0 4 C0 2.68 0 1.36 0 0 Z " fill="#AE2253" transform="translate(337,306)"/>
<path d="M0 0 C0.99 0.99 1.98 1.98 3 3 C2.71125 3.515625 2.4225 4.03125 2.125 4.5625 C0.71191048 7.62419397 -0.08933132 10.75574282 -1 14 C-1.64199649 15.67632417 -2.29894157 17.34750513 -3 19 C-4.7093832 15.58123361 -2.95633777 11.93878035 -2.0625 8.375 C-1.86720703 7.57320313 -1.67191406 6.77140625 -1.47070312 5.9453125 C-0.98668398 3.96201453 -0.49413978 1.98080066 0 0 Z " fill="#B42358" transform="translate(161,275)"/>
<path d="M0 0 C1.32 0.33 2.64 0.66 4 1 C2.23628182 2.03307771 0.46374967 3.05112049 -1.3125 4.0625 C-2.79169922 4.91521484 -2.79169922 4.91521484 -4.30078125 5.78515625 C-7 7 -7 7 -10 6 C-9.525625 5.54625 -9.05125 5.0925 -8.5625 4.625 C-6.90972192 3.06741796 -6.90972192 3.06741796 -6 1 C-3.03 1.495 -3.03 1.495 0 2 C0 1.34 0 0.68 0 0 Z " fill="#B32256" transform="translate(334,251)"/>
<path d="M0 0 C0 0.99 0 1.98 0 3 C-3.12706959 4.5635348 -6.57982443 4.39958487 -10 4 C-10.99 3.34 -11.98 2.68 -13 2 C-3.28571429 0 -3.28571429 0 0 0 Z " fill="#C46772" transform="translate(254,149)"/>
<path d="M0 0 C0.99 0 1.98 0 3 0 C3.33 2.64 3.66 5.28 4 8 C3.34 8 2.68 8 2 8 C2 10.31 2 12.62 2 15 C1.67 15 1.34 15 1 15 C0.67 10.05 0.34 5.1 0 0 Z " fill="#BA2453" transform="translate(233,134)"/>
<path d="M0 0 C0.66 0.33 1.32 0.66 2 1 C0.02 4.63 -1.96 8.26 -4 12 C-4.33 12 -4.66 12 -5 12 C-5.3125 8.8125 -5.3125 8.8125 -5 5 C-2.5 2.0625 -2.5 2.0625 0 0 Z " fill="#AF2154" transform="translate(317,187)"/>
<path d="M0 0 C2.0625 0.4375 2.0625 0.4375 4 1 C1.28817788 3.60334924 0.10866187 3.99456691 -3.75 4.1875 C-4.8225 4.125625 -5.895 4.06375 -7 4 C-7.33 3.34 -7.66 2.68 -8 2 C-6.865625 1.855625 -5.73125 1.71125 -4.5625 1.5625 C-1.19222799 1.38828522 -1.19222799 1.38828522 0 0 Z " fill="#BC7D64" transform="translate(268,168)"/>
<path d="M0 0 C0.99 0.33 1.98 0.66 3 1 C-0.625 6.75 -0.625 6.75 -4 9 C-4.33 7.68 -4.66 6.36 -5 5 C-4.360625 4.731875 -3.72125 4.46375 -3.0625 4.1875 C-0.66868314 3.11332248 -0.66868314 3.11332248 0 0 Z " fill="#B22353" transform="translate(175,305)"/>
<path d="M0 0 C1.1484375 1.703125 1.1484375 1.703125 2 4 C1.1015625 6.359375 1.1015625 6.359375 -0.375 8.75 C-0.85710937 9.54921875 -1.33921875 10.3484375 -1.8359375 11.171875 C-2.22007812 11.77515625 -2.60421875 12.3784375 -3 13 C-3.33 11.68 -3.66 10.36 -4 9 C-3.34 9 -2.68 9 -2 9 C-1.855625 8.071875 -1.71125 7.14375 -1.5625 6.1875 C-1 3 -1 3 0 0 Z " fill="#AC2452" transform="translate(363,217)"/>
<path d="M0 0 C0.66 0 1.32 0 2 0 C2 1.32 2 2.64 2 4 C1.34 4 0.68 4 0 4 C-0.33 4.99 -0.66 5.98 -1 7 C-1.99 7.33 -2.98 7.66 -4 8 C-2.25 2.25 -2.25 2.25 0 0 Z " fill="#B12859" transform="translate(211,174)"/>
<path d="M0 0 C3.3 0 6.6 0 10 0 C6.3750203 1.81248985 4.62740416 2.31888915 0.75 2.625 C-0.14203125 2.69976562 -1.0340625 2.77453125 -1.953125 2.8515625 C-2.62859375 2.90054687 -3.3040625 2.94953125 -4 3 C-2.68 2.67 -1.36 2.34 0 2 C0 1.34 0 0.68 0 0 Z " fill="#AC2755" transform="translate(146,323)"/>
<path d="M0 0 C-0.33 1.32 -0.66 2.64 -1 4 C-3.97 3.67 -6.94 3.34 -10 3 C-7.14414946 0.14414946 -3.95889689 0 0 0 Z " fill="#BB1F57" transform="translate(206,260)"/>
<path d="M0 0 C0.33 0.66 0.66 1.32 1 2 C1.66 2.33 2.32 2.66 3 3 C0.36 4.65 -2.28 6.3 -5 8 C-5 7.01 -5 6.02 -5 5 C-4.01 4.34 -3.02 3.68 -2 3 C-2 2.34 -2 1.68 -2 1 C-1.34 0.67 -0.68 0.34 0 0 Z " fill="#B12454" transform="translate(135,272)"/>
<path d="M0 0 C0.33 1.32 0.66 2.64 1 4 C0.38125 4.2475 -0.2375 4.495 -0.875 4.75 C-3.35068687 6.20628639 -3.95125002 7.37812506 -5 10 C-5 6.60406522 -4.47834052 5.93380119 -2.5 3.3125 C-2.0359375 2.68988281 -1.571875 2.06726563 -1.09375 1.42578125 C-0.7328125 0.95527344 -0.371875 0.48476562 0 0 Z " fill="#B22054" transform="translate(314,173)"/>
<path d="M0 0 C0.66 0 1.32 0 2 0 C2.66 2.31 3.32 4.62 4 7 C3.01 7.495 3.01 7.495 2 8 C2 7.34 2 6.68 2 6 C1.34 6 0.68 6 0 6 C0 4.02 0 2.04 0 0 Z " fill="#BA2055" transform="translate(224,140)"/>
<path d="M0 0 C0.33 0 0.66 0 1 0 C0.75 3.375 0.75 3.375 0 7 C-2.0625 8.4375 -2.0625 8.4375 -4 9 C-2.80100302 5.9168649 -1.52299523 2.93720508 0 0 Z " fill="#AF2656" transform="translate(154,300)"/>
<path d="M0 0 C1.125 1.75 1.125 1.75 2 4 C1.125 6.25 1.125 6.25 0 8 C-0.99 8 -1.98 8 -3 8 C-1.125 2.25 -1.125 2.25 0 0 Z " fill="#AF2252" transform="translate(364,296)"/>
<path d="M0 0 C0.86625 0.3403125 0.86625 0.3403125 1.75 0.6875 C0.326875 1.30625 0.326875 1.30625 -1.125 1.9375 C-4.25716624 3.6915131 -5.11500606 4.39601757 -6.25 7.6875 C-6.5 5.375 -6.5 5.375 -6.25 2.6875 C-4.11319077 0.39806154 -3.15626895 -0.43837069 0 0 Z " fill="#AC2B57" transform="translate(289.25,150.3125)"/>
<path d="M0 0 C0.33 0 0.66 0 1 0 C1.25 5.625 1.25 5.625 -1 9 C-1.66 9 -2.32 9 -3 9 C-2.01 6.03 -1.02 3.06 0 0 Z " fill="#AE2457" transform="translate(368,286)"/>
<path d="M0 0 C0.33 0 0.66 0 1 0 C1 2.64 1 5.28 1 8 C1.99 7.67 2.98 7.34 4 7 C4 7.66 4 8.32 4 9 C2.35 9.33 0.7 9.66 -1 10 C-0.67 6.7 -0.34 3.4 0 0 Z " fill="#B73D66" transform="translate(241,141)"/>
</svg>
